<?xml version="1.0" encoding="UTF-8"?><svg id="Layer_1" xmlns="http://www.w3.org/2000/svg" xmlns:xlink="http://www.w3.org/1999/xlink" viewBox="0 0 200 200"><defs><style>.cls-1,.cls-2,.cls-3,.cls-4{fill:none;}.cls-5{fill:#fff;}.cls-6{fill:#30bf97;}.cls-2{stroke:#fff;stroke-width:.92px;}.cls-2,.cls-3{stroke-miterlimit:10;}.cls-3{stroke:#000;stroke-width:1.14px;}.cls-4{clip-path:url(#clippath);}</style><clipPath id="clippath"><ellipse class="cls-1" cx="100.32" cy="110.02" rx="77.96" ry="98.27" transform="translate(-43.81 147.37) rotate(-62.17)"/></clipPath></defs><ellipse class="cls-6" cx="100.58" cy="89.72" rx="73.41" ry="88.16" transform="translate(-25.72 136.78) rotate(-62.17)"/><ellipse class="cls-2" cx="100.32" cy="110.02" rx="77.96" ry="97.92" transform="translate(-43.81 147.37) rotate(-62.17)"/><g class="cls-4"><path class="cls-5" d="m108.14,145.5l24.36-76.13-36.62,36.62c3.87,5.06,3.49,12.33-1.14,16.96-3.54,3.54-8.61,4.59-13.07,3.17-1.38-.44-2.7-1.12-3.9-2.04-.46-.34-.89-.73-1.31-1.14-.45-.45-.85-.92-1.22-1.4-.87-1.17-1.53-2.46-1.95-3.8-1.42-4.45-.36-9.53,3.17-13.07,4.6-4.6,11.8-5.01,16.87-1.22l36.63-36.63-76.13,24.36v25.83s-2.7-2.7-2.7-2.7l-60.22,60.22,34.41,34.41,60.22-60.22-3.24-3.24h25.83Z"/><polyline class="cls-3" points="113.27 115.61 130.98 60.25 108.23 83.01"/><polyline class="cls-3" points="27.6 127.23 -10.6 165.42 23.81 199.84 84.03 139.62 80.79 136.38 93.05 136.38"/><polyline class="cls-3" points="63.3 78.56 52.32 82.07 52.32 107.9 49.62 105.21 39.05 115.78"/><path class="cls-3" d="m94.36,96.88c3.87,5.06,3.49,12.33-1.14,16.96-3.54,3.54-8.61,4.59-13.07,3.17-1.38-.44-2.7-1.12-3.9-2.04-.46-.34-.89-.73-1.31-1.14-.45-.45-.85-.92-1.22-1.4-.87-1.17-1.53-2.46-1.95-3.8-1.42-4.45-.36-9.53,3.17-13.07,4.6-4.6,11.8-5.01,16.87-1.22l36.63-36.63-28.12,9"/></g></svg>