<?xml version="1.0" encoding="UTF-8"?><svg id="Layer_1" xmlns="http://www.w3.org/2000/svg" xmlns:xlink="http://www.w3.org/1999/xlink" viewBox="0 0 200 200"><defs><style>.cls-1,.cls-2,.cls-3,.cls-4,.cls-5{fill:none;}.cls-2{clip-path:url(#clippath-1);}.cls-6{fill:#fff;}.cls-7{fill:#30bf97;}.cls-3{stroke:#fff;stroke-width:.92px;}.cls-3,.cls-4{stroke-miterlimit:10;}.cls-4{stroke:#000;stroke-width:1.02px;}.cls-5{clip-path:url(#clippath);}</style><clipPath id="clippath"><ellipse class="cls-1" cx="103.51" cy="-126.32" rx="77.96" ry="97.92" transform="translate(166.9 24.19) rotate(-62.17)"/></clipPath><clipPath id="clippath-1"><ellipse class="cls-1" cx="98.97" cy="112.16" rx="77.96" ry="97.92" transform="translate(-46.42 147.32) rotate(-62.17)"/></clipPath></defs><g class="cls-5"><path class="cls-6" d="m81.3-83.3l-17.91-17.91c-18.21,15.13-42.07,36.1-68.83,62.7C-45.22,1.04-72.98,34.72-87.85,53.64l14.61,14.61C-52.34,51.09-19.73,23.03,18.1-14.97c26.01-26.14,47.18-49.64,63.2-68.33Z"/><path class="cls-4" d="m67.65-92.86l-17.91-17.91C31.52-95.64,7.67-74.67-19.1-48.07-58.87-8.52-86.63,25.16-101.5,44.08l14.61,14.61C-65.99,41.54-33.38,13.48,4.45-24.52c26.01-26.14,47.18-49.64,63.2-68.33Z"/></g><ellipse class="cls-7" cx="99.24" cy="91.86" rx="73.41" ry="88.16" transform="translate(-28.33 136.74) rotate(-62.17)"/><ellipse class="cls-3" cx="98.97" cy="112.16" rx="77.96" ry="97.92" transform="translate(-46.42 147.32) rotate(-62.17)"/><g class="cls-2"><rect class="cls-6" x="1.92" y="99.87" width="36.86" height="73.73"/><path class="cls-6" d="m145.27,128.55c0-5.28-4.27-9.56-9.56-9.56h-1.24c3.52-1.41,6.02-4.85,6.02-8.87,0-5.28-4.27-9.56-9.56-9.56h-42.75l11.67-36.08c2.2-6.79-2.87-13.75-10.01-13.75-3.73,0-7.18,1.98-9.07,5.2l-25.79,43.95h-5.3v73.73h76.46c5.28,0,9.56-4.27,9.56-9.56,0-3.51-1.9-6.57-4.71-8.23,4.93-.38,8.81-4.49,8.81-9.52,0-3.48-1.87-6.53-4.66-8.19h.56c5.28,0,9.56-4.27,9.56-9.56Z"/><rect class="cls-4" x="-2.18" y="91.68" width="36.86" height="73.73"/><path class="cls-4" d="m141.18,120.35c0-5.28-4.27-9.56-9.56-9.56h-1.24c3.52-1.41,6.02-4.85,6.02-8.87,0-5.28-4.27-9.56-9.56-9.56h-42.75l11.67-36.08c2.2-6.79-2.87-13.75-10.01-13.75-3.73,0-7.18,1.98-9.07,5.2l-25.79,43.95h-5.3v73.73h76.46c5.28,0,9.56-4.27,9.56-9.56,0-3.51-1.9-6.57-4.71-8.23,4.93-.38,8.81-4.49,8.81-9.52,0-3.48-1.87-6.53-4.66-8.19h.56c5.28,0,9.56-4.27,9.56-9.56Z"/></g></svg>