<?xml version="1.0" encoding="UTF-8"?><svg id="Layer_1" xmlns="http://www.w3.org/2000/svg" xmlns:xlink="http://www.w3.org/1999/xlink" viewBox="0 0 200 200"><defs><style>.cls-1,.cls-2,.cls-3,.cls-4{fill:none;}.cls-5{fill:#fff;}.cls-6{fill:#30bf97;}.cls-2{stroke:#fff;stroke-width:.92px;}.cls-2,.cls-3{stroke-miterlimit:10;}.cls-3{stroke:#000;stroke-width:1.02px;}.cls-4{clip-path:url(#clippath);}</style><clipPath id="clippath"><ellipse class="cls-1" cx="102.49" cy="112.16" rx="77.96" ry="97.92" transform="translate(-44.54 150.44) rotate(-62.17)"/></clipPath></defs><ellipse class="cls-6" cx="102.76" cy="91.86" rx="73.41" ry="88.16" transform="translate(-26.45 139.85) rotate(-62.17)"/><ellipse class="cls-2" cx="102.49" cy="112.16" rx="77.96" ry="97.92" transform="translate(-44.54 150.44) rotate(-62.17)"/><g class="cls-4"><path class="cls-5" d="m-25.51,142.5c0,6.06,4.91,10.97,10.97,10.97h55.51v23.92h-13.02l-12.15,7.19h76.71l-12.15-7.19h-13.02v-23.92h56.8c6.06,0,10.97-4.91,10.97-10.97v-10.01H-25.51v10.01Z"/><path class="cls-5" d="m-25.5,47.99v77.31h160.6V47.99H-25.5Zm118.06,61.27l-13.17-13.17-9.88,9.88-14.66-41.98,41.98,14.66-9.55,9.54,13.17,13.17-7.9,7.91Z"/><path class="cls-3" d="m-13.52,140.89v10.01c0,6.06,4.91,10.97,10.97,10.97h138.67c6.06,0,10.97-4.91,10.97-10.97v-10.01H-13.52Z"/><rect class="cls-3" x="-13.52" y="56.39" width="160.6" height="77.31"/></g><polygon class="cls-3" points="99.28 116.16 86.11 102.99 76.23 112.87 61.58 70.88 103.56 85.54 94.01 95.08 107.18 108.25 99.28 116.16"/></svg>