<svg viewBox="0 0 1024 768" xmlns="http://www.w3.org/2000/svg" xmlns:xlink="http://www.w3.org/1999/xlink"><linearGradient id="a" gradientUnits="userSpaceOnUse" x1="337.74" x2="337.74" y1="297.65" y2="141.25"><stop offset=".01" stop-color="#d32f2f"/><stop offset="1" stop-color="#fff176"/></linearGradient><linearGradient id="b" gradientUnits="userSpaceOnUse" x1="672.46" x2="804.24" y1="281.78" y2="281.78"><stop offset="0" stop-color="#b3e5fc"/><stop offset="1" stop-color="#01579b"/></linearGradient><linearGradient id="c" x1="727.74" x2="727.74" xlink:href="#b" y1="134.43" y2="224.44"/><linearGradient id="d" gradientUnits="userSpaceOnUse" x1="291.8" x2="291.8" y1="504.16" y2="605.93"><stop offset="0" stop-color="#2ca3a0"/><stop offset="1" stop-color="#fb2bba"/></linearGradient><linearGradient id="e" x1="648.56" x2="806.7" xlink:href="#d" y1="544.16" y2="544.16"/><text font-size="30.33" transform="translate(186.62 224.39)"><tspan fill="#ff9800" font-family="Futura-Bold, Futura" font-weight="700"><tspan x="0" y="0">MATCH</tspan></tspan><tspan fill="#d32f2f" font-family="Futura-Medium, Futura" font-weight="500"><tspan x="38.82" y="30.68">MINT</tspan></tspan></text><path d="m342.45 215.9c-.32-1.62 1.01-3.08 2.65-2.93l2.56.24 1.15-1.3c3.23-3.67 9.23-2.75 11.1 1.76.01.03.03.07.04.1l.64 1.6 5.87 2.66c1.49.67 3.13-.26 3.43-1.75s0 0 0 0c0-.02 0-.05.01-.07l1.41-9.97c.07-.25.11-.52.11-.78.02-1.26-.73-2.51-2.1-2.97l-10.59-3.57s-.04-.01-.06-.02l-4.29-1.44-2.13-1.62-4.6-6.79 14.8-9.72.57-4.99-48.26 31.44-6.08-20.68c3.69 1.2 7.78 1.23 11.52.13 1.06-.31 2.09-.71 3.07-1.2l-1.76-3.52c-3.19 1.59-6.99 2-10.47 1.17-.54-.13-1.08-.29-1.6-.48-.21-.08-.43-.16-.64-.25-.09-.04-.18-.08-.27-.12-.12-.05-.25-.11-.37-.17-.1-.05-.19-.09-.28-.14-.13-.06-.25-.13-.37-.2-.08-.04-.16-.08-.24-.13-.01 0-.02-.01-.04-.02l-.78-2.65c.83.29 1.67.55 2.51.8 1.74.51 3.51.93 5.28 1.25 3.17.58 6.39.88 9.63.88 5.05 0 10.1-.74 15-2.18 3.32-.98 6.56-2.28 9.63-3.87l-1.81-3.49c-2.84 1.47-5.85 2.68-8.93 3.59-4.54 1.34-9.22 2.02-13.9 2.02-1.55 0-3.08-.07-4.61-.22-1.96-.18-3.9-.48-5.82-.9-2.7-.58-5.36-1.4-7.97-2.44l-.2.5-.72-2.44c3.4 1.49 6.96 2.58 10.61 3.26 2.01.37 4.04.62 6.08.73.88.05 1.76.08 2.64.07 4.57 0 9.12-.67 13.49-1.96 4.47-1.31 8.75-3.27 12.67-5.81 1.55 1.28 3 2.69 4.33 4.22l2.97-2.58c-1.86-2.14-3.94-4.07-6.19-5.77l-.71-.94s0 0 0 0c-1.22.93-2.49 1.78-3.8 2.57-5.83 3.51-12.46 5.65-19.24 6.2-1.17.1-2.34.14-3.51.15-1.23 0-2.45-.05-3.68-.16-5.99-.5-11.84-2.24-17.14-5.06l-.57-1.95c5.99 3.46 12.81 5.44 19.73 5.71.55.02 1.11.03 1.67.03 2.07 0 4.15-.16 6.19-.46 1.96-.29 3.89-.72 5.79-1.28 3.28-.96 6.44-2.31 9.4-4.03 1.25-.72 2.46-1.51 3.64-2.36.23-.16.45-.33.67-.5l-1.11-1.47c3.71 2.26 7.08 5.08 9.95 8.39l2.97-2.58c-3.21-3.68-6.97-6.82-11.13-9.32-1.28-.77-2.6-1.48-3.95-2.12-3.56-1.7-7.34-2.95-11.24-3.69-10.18-1.94-20.85-.39-30.05 4.37l1.81 3.49c8.42-4.36 18.19-5.78 27.51-4 2.76.53 5.46 1.33 8.05 2.39 1.4.57 2.78 1.22 4.12 1.94-.44.31-.88.62-1.33.91-1.38-.71-2.8-1.35-4.25-1.9-2.22-.84-4.51-1.5-6.85-1.94-9-1.72-18.44-.34-26.58 3.87l1.81 3.49c-3.11-1.26-6.06-2.91-8.74-4.93l-1.18 1.57-2.08.61.78 2.64 1.7 5.77 1.76 6s2.38 8.11 2.38 8.11l34.21 116.35.4-5.86.33-5.6c5.11-17.3 28.97-10.5 32.99-25.26-21.42-16.06-27.69-38.24-29.34-46.46zm-9.15-56.43c1.14.22 2.27.49 3.39.82l-8.04 5.24c-1.58.2-3.18.31-4.78.31-5 0-9.98-.99-14.6-2.87 7.36-3.81 15.9-5.05 24.04-3.5zm42.95 82.58-12.74 2.26-.46-2.84 9.39-5.42.13 2.62 3.58.55.11 2.84zm-.7 3.37 1.11 3.77-6.34 1.86-1.11-3.77zm-71.22-91.98-1.81-3.49c10.26-5.31 22.17-7.05 33.52-4.88 11.35 2.16 21.78 8.16 29.37 16.88l-2.97 2.58c-3.15-3.62-6.83-6.73-10.89-9.24-1.26-.78-2.55-1.51-3.88-2.17-3.9-1.95-8.06-3.37-12.37-4.19-10.49-2-21.49-.4-30.98 4.51zm73.9 76.67c-1.66 3.36-5.74 4.74-9.1 3.07s-4.74-5.74-3.07-9.1l12.17 6.02z" fill="url(#a)"/><g fill="url(#b)"><path d="m681.5 286.16 2.48-16.45h5.06v23.17h-3.44v-16.61l-2.52 16.61h-3.44l-2.71-16.38v16.38h-3.18v-23.17h5.06l2.68 16.45z"/><path d="m703.47 292.88h-3.67l-.63-4.2h-4.47l-.63 4.2h-3.34l3.71-23.17h5.33l3.71 23.17zm-8.31-7.35h3.51l-1.75-11.72-1.75 11.72z"/><path d="m704.1 269.71h11.25v3.31h-3.81v19.86h-3.64v-19.86h-3.81v-3.31z"/><path d="m727.5 284.24v3.08c0 3.71-1.85 5.83-5.43 5.83s-5.43-2.12-5.43-5.83v-12.05c0-3.71 1.85-5.83 5.43-5.83s5.43 2.12 5.43 5.83v2.25h-3.44v-2.48c0-1.66-.73-2.28-1.89-2.28s-1.89.63-1.89 2.28v12.51c0 1.65.73 2.25 1.89 2.25s1.89-.6 1.89-2.25v-3.31z"/><path d="m733.35 292.88h-3.64v-23.17h3.64v9.93h4.14v-9.93h3.71v23.17h-3.71v-9.93h-4.14z"/><path d="m751.62 292.85h-1.52l-4.9-20.49v20.52h-1.36v-23.17h2.18l4.87 20.49 4.83-20.49h2.18v23.17h-1.46v-20.59l-4.83 20.55z"/><path d="m762.08 269.71v23.17h-1.52v-23.17z"/><path d="m766.11 292.88h-1.39v-23.17h1.99l6.95 19.56v-19.56h1.39v23.17h-1.69l-7.25-20.65z"/><path d="m781.67 292.88v-21.78h-4.73v-1.39h10.96v1.39h-4.7v21.78h-1.52z"/></g><text font-size="33.09" transform="translate(672.46 292.88)"><tspan fill="#03a9f4" font-family="BebasNeueBold, 'Bebas Neue'" x="0" y="0">MATCH</tspan><tspan fill="#01579b" font-family="BebasNeueBook, 'Bebas Neue'" x="70.06" y="0">MINT</tspan></text><path d="m807.18 195.96c-.06-.72-.14-1.44-.22-2.16-1.21-10.4-4.42-20.19-9.25-28.98-.37-.68-.97-1.2-1.68-1.5l-4.65-1.95-.53-.22c-2.54.6-4.93 1.16-7.47 1.76l-12.41 14.42c-.97 1.13-1.1 2.75-.33 4.02l7.36 12.1-22.9 11.29c-1.14.56-2.51.45-3.54-.3l-21.82-15.85c-1.2-.87-2.83-.87-4.04 0l-21.82 15.85c-1.03.75-2.39.87-3.54.3l-22.9-11.29 7.36-12.1c.77-1.27.64-2.9-.33-4.02l-12.41-14.42c-2.54-.6-4.93-1.16-7.47-1.76l-.53.22-4.65 1.95c-.71.3-1.31.82-1.68 1.5-4.82 8.78-8.04 18.57-9.25 28.98-.08.72-.16 1.43-.22 2.16-.21 2.36-.32 4.76-.32 7.18 0 12.71 2.97 24.73 8.26 35.39 3.48 7.02 7.97 13.46 13.27 19.12.64.69 1.55 1.06 2.49 1.06h11.57c.21 0 .43-.02.64-.06l.13-.03-.07-.12-11.35-20.72c-.71-1.3-2.19-2-3.65-1.72l-1.2.23c-1.49.28-3-.44-3.69-1.8-4.92-9.67-7.7-20.61-7.7-32.21 0-.01 0-.03 0-.04 0-2.2 2.08-3.81 4.22-3.31l11.58 2.74.22-.36-.12.56 23.98 9.25c.88.34 1.58 1.02 1.94 1.89l12.44 30.12c.53 1.28 1.78 2.12 3.17 2.12h27.23c1.39 0 2.64-.84 3.17-2.12l12.44-30.12c.36-.87 1.06-1.55 1.94-1.89l23.98-9.25-.12-.56.22.36 11.58-2.74c2.14-.51 4.22 1.11 4.22 3.31v.04c0 11.59-2.78 22.54-7.7 32.21-.69 1.35-2.2 2.08-3.69 1.8l-1.2-.23c-1.46-.28-2.94.42-3.65 1.72l-11.35 20.72-.07.12.13.03c.21.04.42.06.64.06h11.57c.94 0 1.84-.38 2.49-1.06 5.3-5.66 9.79-12.1 13.27-19.12 5.29-10.67 8.26-22.68 8.26-35.39 0-2.42-.11-4.82-.32-7.18z" fill="url(#c)"/><text fill="#29abe2" font-size="20.04" transform="translate(256.3 630.99)"><tspan font-family="BebasNeueBold, 'Bebas Neue'" x="0" y="0">MATCH</tspan><tspan font-family="BebasNeueBook, 'Bebas Neue'" x="42.43" y="0">MINT</tspan></text><text font-size="20.04" transform="translate(256.3 630.99)"><tspan fill="#2ca3a0" font-family="BebasNeueBold, 'Bebas Neue'" x="0" y="0">MATCH</tspan><tspan fill="#fb2bba" font-family="BebasNeueBook, 'Bebas Neue'" x="42.43" y="0">MINT</tspan></text><path d="m346.73 548.79c0 9.86-2.58 19.32-7.42 27.61-.19.31-.37.62-.56.93-2.26 3.7-4.97 7.15-8.11 10.29-.61.61-1.23 1.21-1.86 1.78-.09.08-.18.16-.27.24-.12.11-.24.21-.36.32-.15.14-.3.27-.45.4-.27.24-.55.47-.83.7-.14.12-.29.24-.44.36-.02.02-.05.04-.08.06-.14.12-.29.24-.45.36-.18.14-.36.29-.55.43-.48.37-.96.73-1.44 1.08-.34.25-.68.49-1.02.72l-46.4-46.4-20.39 20.39c-.1-.18-.2-.37-.29-.55-.09-.17-.18-.35-.27-.52 0-.01-.01-.03-.02-.05-.09-.18-.18-.36-.27-.55s-.18-.37-.27-.56-.17-.38-.26-.57c-.08-.19-.17-.38-.25-.57 0-.01 0-.02-.01-.03-.08-.18-.15-.37-.23-.55-.08-.19-.16-.38-.23-.58-.08-.19-.15-.39-.22-.58-.06-.14-.11-.29-.16-.43-.04-.1-.08-.21-.11-.31 0-.02-.01-.05-.03-.07-.04-.11-.08-.22-.11-.33-.07-.21-.14-.41-.21-.62-.07-.22-.14-.45-.21-.67-.11-.37-.22-.74-.32-1.11 0-.02 0-.03-.01-.05-.05-.19-.1-.39-.15-.58-.1-.4-.2-.81-.29-1.22-.04-.2-.08-.4-.13-.6 0-.01 0-.02 0-.03-.08-.4-.16-.81-.23-1.22-.03-.21-.07-.41-.1-.62-.03-.16-.05-.31-.07-.47-.01-.09-.03-.19-.04-.29 0-.02 0-.03 0-.05-.04-.31-.08-.63-.12-.95 0-.08-.02-.16-.02-.24-.02-.17-.03-.34-.05-.52-.02-.21-.04-.42-.05-.63-.02-.21-.03-.42-.04-.63s-.02-.42-.03-.64-.02-.42-.02-.64c0-.2-.01-.41-.01-.62v-.04c0-.21 0-.42 0-.63 0-10.84 4.22-21.02 11.88-28.68.17-.17.34-.34.51-.51.12-.11.24-.23.36-.34.03-.03.06-.05.09-.08.14-.13.29-.27.43-.4.15-.14.3-.27.45-.4.13-.12.27-.24.41-.36l-5.09-5.09c-.17.15-.34.3-.51.46-.15.13-.3.27-.44.4-.28.26-.56.52-.83.79-.15.15-.3.3-.46.45-.18.18-.37.37-.55.56-.1.1-.19.2-.29.3-.08.09-.17.18-.25.27-.02.02-.04.04-.06.07-.03.03-.06.06-.09.1-.06.07-.13.13-.19.21 0 0 0 0-.01.01-.06.07-.12.13-.18.2-.14.16-.28.31-.42.47-.11.12-.22.25-.32.37-.04.04-.08.08-.11.13-.11.13-.23.26-.34.4-.04.05-.08.1-.12.14-.01.01-.03.03-.04.04-.16.2-.32.39-.48.59-.01.01-.02.02-.03.04-.03.03-.05.07-.08.1-.08.1-.15.19-.23.29-.01.01-.02.02-.02.03-.04.05-.08.1-.12.15-.05.06-.1.12-.14.19-.01.01-.02.03-.03.04-.09.11-.17.22-.26.34-.01.01-.02.03-.03.04 0 .01-.02.02-.02.03-.1.14-.2.27-.3.41-.01 0-.02.02-.02.02-.09.13-.19.26-.28.39-.1.14-.2.28-.3.42-.14.2-.28.4-.42.6-.13.19-.26.38-.39.58-.06.09-.12.18-.18.27s-.11.17-.17.25c-.02.04-.05.08-.07.11-.05.08-.1.17-.16.26 0 .01-.01.03-.02.04-.12.2-.25.4-.37.6 0 0-.01.01-.02.02-.02.04-.05.08-.08.13-.03.04-.06.08-.08.13 0 .01-.01.02-.02.03 0 0 0 .01-.01.02 0 0 0 .01-.01.02-.06.11-.12.21-.18.31-.03.06-.07.12-.1.17l-.08.14-.09.15c-.09.16-.18.32-.27.48-.12.21-.23.42-.35.64-.37.68-.71 1.38-1.05 2.07-.08.17-.16.35-.24.53s-.16.35-.24.53c-.06.15-.13.29-.19.44-.13.3-.25.59-.38.9-.08.19-.16.39-.23.58-.08.21-.16.42-.24.63-.05.12-.09.24-.13.37-.04.1-.08.21-.12.31-.19.55-.38 1.1-.56 1.65-.04.13-.08.26-.12.39-.05.16-.1.32-.14.48-.05.17-.1.32-.14.49-.07.24-.13.48-.2.72-.05.19-.1.39-.15.58-.06.21-.11.42-.16.64-.05.21-.1.42-.15.64-.11.47-.2.95-.3 1.43-.03.17-.07.33-.09.5-.04.22-.08.43-.11.65-.03.18-.06.36-.09.54-.05.3-.09.61-.13.91-.05.39-.1.78-.14 1.17s-.08.78-.11 1.18c-.01.15-.03.3-.04.45-.01.14-.02.29-.03.43-.01.2-.02.39-.04.59 0 .13-.01.25-.02.38 0 .17-.01.34-.02.51 0 .16-.01.32-.02.49v.41c0 .3-.01.59-.01.89v.65.29c0 .17 0 .34.01.51 0 .11 0 .22.01.34 0 .22.02.45.03.67 0 .2.02.4.03.6v.15.13c.02.25.03.49.06.75.02.22.04.43.06.65.01.08.02.17.02.25.02.24.05.48.08.72.03.26.07.53.1.79v.01c.04.27.07.54.12.8.04.27.08.53.13.8.04.23.08.47.12.7 0 .04.01.08.02.11.05.24.09.48.14.71 0 .05.02.09.03.14.05.24.1.48.15.71l.18.78c.05.21.1.43.16.64.01.07.03.13.05.2.06.23.12.46.18.68v.03c.07.23.13.47.2.7.02.06.04.12.06.18.04.15.09.29.13.43.03.11.07.21.1.32 0 .02.02.05.02.07.06.2.13.39.19.59.08.22.15.45.23.68.1.29.2.57.31.86.09.24.18.48.28.72.09.23.18.46.27.68.01.03.02.06.04.09.11.26.22.52.32.77l.03.06c.09.21.18.41.27.61.01.03.02.06.04.09.1.22.2.43.3.64.11.24.23.48.35.72.11.24.24.48.36.72s.25.47.37.71v.01c.13.23.25.47.38.69.12.22.24.43.37.65l.04.07c.12.2.24.41.36.61.01.02.03.04.04.06.16.27.32.54.49.8.13.21.27.42.4.62.04.07.09.13.13.2.17.25.33.5.51.75 0 0 0 .01.01.02.17.24.33.48.5.72.01.02.03.04.04.06.02.03.04.07.07.1.16.22.31.43.47.65.19.25.38.5.58.75.19.25.39.5.59.74t0 0c.19.24.39.48.59.72h.01l21.26-21.25 34.36 34.36 5.41 5.4 3.99 3.99c-8.54 4.72-18.36 7.41-28.81 7.41-12.73 0-24.53-3.99-34.22-10.79l19.27-19.27 9.62 9.62 7.54 7.54s.07 0 .1 0c.17 0 .33-.01.49-.02.2 0 .4-.02.59-.03.23-.02.46-.03.69-.05l.69-.06c.13-.01.26-.02.38-.04.61-.06 1.22-.13 1.83-.21.2-.03.4-.06.6-.09.16-.02.32-.05.48-.08.19-.03.38-.06.58-.1.21-.04.43-.08.64-.12.33-.06.67-.13 1-.2.2-.04.4-.09.61-.13.2-.04.4-.09.6-.13l-26.45-26.45-21.12 21.12c-.14-.13-.29-.26-.42-.39-.17-.15-.34-.3-.51-.46-.13-.12-.25-.23-.37-.35-.18-.16-.35-.33-.52-.5-.2-.19-.39-.38-.58-.57-.16-.16-.32-.32-.47-.48-.02-.02-.04-.04-.07-.06-.04-.03-.07-.08-.11-.11-.02-.02-.04-.04-.06-.07-.07-.06-.13-.13-.19-.19l-.03-.03s0-.01-.01-.01c-.31-.32-.61-.65-.91-.98-.02-.02-.04-.04-.06-.07-.01-.01-.02-.03-.03-.04-.07-.08-.14-.16-.21-.24-.04-.04-.07-.08-.1-.12l-.04-.04s-.03-.03-.04-.05c-.01-.01-.02-.02-.02-.03-.05-.05-.09-.1-.14-.15-.11-.12-.21-.24-.31-.36-.12-.14-.25-.29-.37-.43-.02-.02-.03-.04-.05-.06-.03-.03-.06-.07-.09-.11s-.06-.07-.09-.11c-.05-.06-.1-.12-.14-.18-.01-.01-.02-.02-.03-.04-.09-.1-.17-.2-.25-.3-.09-.11-.17-.21-.26-.32-.14-.17-.28-.35-.42-.52-.12-.15-.24-.31-.36-.46-.13-.17-.26-.33-.38-.5-.1-.14-.2-.28-.3-.41-.05-.06-.1-.13-.14-.2-.01-.02-.03-.04-.04-.06-.02-.03-.04-.06-.07-.09-.04-.06-.09-.13-.13-.19-.02-.02-.03-.05-.05-.07-.01-.02-.03-.05-.05-.07-.11-.15-.22-.3-.32-.46-.14-.2-.28-.4-.41-.6-.03-.04-.05-.08-.08-.11-.17-.25-.34-.5-.5-.76 0 0-.01-.02-.02-.03-.01-.02-.02-.04-.03-.06-.16-.25-.32-.49-.47-.74-.16-.26-.31-.51-.46-.76-.04-.07-.09-.15-.13-.22-.12-.19-.23-.38-.34-.58-.03-.05-.06-.1-.09-.15s-.06-.1-.09-.16c0-.01-.02-.03-.03-.05-.12-.21-.23-.42-.35-.63-.13-.24-.26-.48-.39-.71-.05-.1-.11-.2-.16-.3-.13-.24-.25-.48-.37-.72-.03-.06-.06-.11-.08-.17l-.08-.17c-.08-.16-.16-.32-.23-.48-.02-.04-.04-.07-.05-.11-.09-.18-.18-.37-.26-.55-.05-.11-.1-.21-.15-.32-.04-.08-.07-.16-.1-.23-.02-.03-.03-.06-.04-.09-.06-.13-.12-.27-.18-.4-.07-.17-.15-.34-.22-.51-.06-.12-.11-.24-.16-.37-.03-.08-.07-.16-.1-.24-.09-.21-.17-.41-.25-.62-.04-.1-.08-.2-.12-.29-.07-.18-.14-.36-.21-.53 0-.02-.01-.03-.02-.05-.05-.12-.09-.24-.14-.37-.08-.21-.15-.42-.23-.63-.02-.06-.05-.13-.07-.2s-.04-.13-.07-.2c-.08-.22-.15-.45-.23-.67-.06-.17-.11-.34-.17-.51 0-.02-.02-.05-.02-.07-.03-.08-.06-.17-.08-.25-.03-.09-.06-.18-.09-.28-.04-.12-.07-.24-.11-.36-.06-.19-.12-.39-.17-.59 0 0 0-.02-.01-.03-.07-.24-.14-.48-.2-.72-.02-.08-.04-.16-.06-.24-.05-.19-.1-.38-.15-.57 0 0 0-.02 0-.03-.06-.21-.11-.43-.16-.64-.02-.09-.04-.18-.07-.28-.06-.24-.12-.49-.17-.74-.01-.04-.02-.09-.03-.13 0-.02 0-.03-.01-.05-.03-.11-.05-.22-.08-.34 0-.01 0-.02 0-.03-.06-.26-.11-.51-.16-.77-.05-.25-.1-.5-.14-.75-.01-.04-.02-.08-.02-.13 0-.04-.02-.08-.02-.12 0-.01 0-.02 0-.03 0-.02-.01-.05-.01-.07s0-.04 0-.06c0-.03-.01-.05-.02-.08-.04-.23-.08-.47-.12-.7-.04-.22-.07-.44-.1-.66 0 0 0-.01 0-.02 0-.03-.01-.07-.02-.1-.01-.08-.03-.15-.03-.23-.01-.07-.02-.15-.03-.23-.02-.15-.04-.3-.06-.45-.02-.14-.04-.29-.06-.43-.03-.22-.06-.45-.08-.67-.01-.09-.02-.18-.03-.27s-.02-.18-.03-.27-.02-.19-.03-.28c0-.06-.01-.11-.02-.16 0-.05 0-.11-.01-.16 0-.05 0-.1-.01-.15-.02-.25-.04-.5-.06-.74 0-.11-.02-.22-.02-.33 0-.03 0-.06 0-.09-.01-.21-.03-.42-.04-.63 0-.03 0-.07 0-.1-.01-.29-.03-.59-.04-.89 0-.05 0-.11 0-.16 0-.03 0-.07 0-.1 0-.22-.01-.43-.02-.65 0-.03 0-.06 0-.09 0-.05 0-.1 0-.16 0-.05 0-.09 0-.14 0-.26 0-.51 0-.77s0-.5 0-.75v-.38c.01-.17.01-.33.02-.49 0-.15 0-.3.02-.45.01-.3.02-.59.04-.88.01-.25.02-.49.04-.74.01-.26.03-.52.06-.79.01-.2.03-.39.05-.59.03-.36.07-.72.11-1.08.02-.22.05-.43.08-.65 0-.03 0-.06.01-.09.02-.18.04-.36.07-.55.01-.08.02-.17.04-.25.04-.31.09-.63.14-.94.01-.11.03-.22.05-.33.03-.18.06-.36.09-.54.08-.44.16-.88.24-1.33l.15-.72c.04-.18.08-.37.12-.55.16-.71.33-1.41.52-2.11.04-.16.08-.31.12-.46.12-.46.26-.91.39-1.36.06-.19.12-.39.18-.58.05-.16.1-.31.15-.47.08-.23.15-.46.23-.69.09-.27.18-.53.28-.8.08-.21.15-.42.23-.63.07-.18.14-.37.21-.55.04-.09.07-.19.11-.28.06-.14.11-.28.17-.42.08-.21.17-.41.25-.62s.17-.41.26-.61c.07-.18.15-.35.22-.52.04-.09.08-.17.12-.26.13-.29.26-.58.4-.87.26-.55.52-1.09.8-1.63.06-.11.11-.23.18-.34.16-.3.31-.6.48-.9.08-.16.17-.31.26-.47.07-.13.15-.26.22-.4.11-.2.22-.39.33-.58.18-.3.35-.59.53-.89 0-.02.02-.03.03-.04.14-.23.29-.46.43-.69l.42-.66c.16-.25.32-.49.49-.74.14-.22.29-.43.44-.64.13-.19.27-.39.4-.58.03-.05.07-.09.1-.14.15-.21.3-.41.45-.61s.3-.4.45-.6c.03-.04.06-.08.09-.13.15-.19.3-.39.45-.58.14-.18.29-.37.44-.55.04-.05.08-.1.12-.14.15-.18.3-.36.45-.54.04-.06.09-.12.14-.18.29-.35.59-.69.89-1.03.04-.04.07-.08.11-.12.17-.19.34-.38.52-.57.17-.18.33-.36.5-.54.4-.42.8-.85 1.22-1.26.46-.46.91-.9 1.38-1.34.12-.11.25-.22.37-.34.1-.09.2-.18.3-.27l.12-.11s.03-.03.06-.05.05-.05.08-.07c.07-.07.14-.13.22-.19.16-.14.32-.28.47-.42.16-.14.32-.27.48-.4.2-.17.4-.34.6-.5.16-.13.32-.26.49-.39.07-.06.15-.12.22-.18.09-.07.18-.15.28-.22.21-.17.43-.33.65-.5h.01c.21-.16.41-.31.62-.47.46-.34.93-.67 1.4-.99l10.39 10.39 36.01 36 20.39-20.39c.1.18.2.37.29.55.09.17.18.35.27.52 0 .01.01.03.02.05.09.18.18.36.27.55s.18.37.27.56.17.38.26.57c.08.19.16.38.25.57 0 .01 0 .02.01.03.08.18.15.37.23.55.08.19.16.38.23.58.16.41.31.83.46 1.25.06.16.11.31.16.47.08.22.15.45.22.68.07.2.13.41.19.61.11.37.22.74.32 1.11 0 .02 0 .03.01.04.05.19.1.39.15.58.1.4.2.81.29 1.22l.13.6s0 .02 0 .03c.08.4.16.81.23 1.22.03.21.07.41.1.62.03.16.05.31.07.47.01.1.03.19.04.29v.05c.04.31.08.63.12.95 0 .08.02.16.02.24.02.17.03.34.05.51.02.21.04.42.05.63.02.21.03.42.04.63s.02.42.03.64c.01.21.02.42.02.64 0 .21.01.41.01.62v.03.63c0 10.84-4.22 21.02-11.88 28.68-.17.17-.34.34-.51.51-.12.11-.24.23-.36.34-.03.03-.06.05-.09.08-.14.13-.29.27-.43.39-.15.14-.3.27-.45.41-.18.15-.36.31-.54.46-.15.13-.31.26-.46.39-.05.04-.1.08-.15.12 0 0-.02.02-.03.02s.02-.01.03-.02l5.1 5.1c.13-.11.27-.23.4-.34.11-.1.23-.2.35-.3.12-.11.25-.21.37-.32.16-.14.31-.28.47-.43.16-.14.31-.29.46-.44.02-.02.04-.04.07-.06.29-.28.57-.55.85-.83.07-.07.14-.14.21-.21 0-.01.02-.02.03-.03.08-.09.16-.17.25-.25.08-.09.17-.17.24-.26.1-.1.2-.21.3-.32.03-.03.05-.06.08-.08.11-.12.22-.24.33-.36.12-.13.23-.26.35-.39.1-.11.2-.23.31-.34.01-.01.03-.03.04-.04.12-.13.23-.26.34-.39.02-.02.03-.04.05-.06.09-.09.17-.19.24-.29.02-.02.03-.03.04-.05.04-.04.07-.08.1-.13.06-.07.11-.13.17-.2.02-.02.03-.04.06-.07.04-.05.08-.1.12-.15.05-.07.1-.13.15-.19.13-.15.25-.31.37-.47.08-.1.16-.2.23-.3.13-.17.27-.34.39-.52.07-.1.14-.19.21-.29.03-.04.06-.08.09-.12.1-.14.21-.28.3-.41.1-.14.2-.28.3-.42.14-.2.28-.4.42-.6s.27-.4.4-.61c.13-.2.27-.41.4-.61 0-.01.01-.02.02-.04.12-.19.24-.39.37-.58.09-.16.19-.31.28-.47.03-.05.06-.1.09-.14 0 0 .01-.02.02-.03.12-.2.23-.4.35-.6 0 0 0-.01.01-.02l.03-.06c.11-.19.21-.38.32-.57.12-.21.23-.42.35-.64.37-.68.71-1.38 1.05-2.07 2.98-6.3 4.55-13.23 4.55-20.4 0-.22 0-.44 0-.65 0-.1 0-.2 0-.29 0-.17 0-.34-.01-.51 0-.11 0-.23-.01-.34 0-.22-.02-.45-.03-.67-.01-.25-.03-.51-.04-.76 0-.04 0-.09-.01-.13-.02-.25-.03-.5-.06-.75-.02-.22-.04-.43-.06-.65-.01-.08-.02-.17-.02-.25-.02-.24-.05-.48-.08-.72-.03-.26-.07-.53-.1-.79v-.01c-.04-.27-.07-.54-.12-.8-.04-.27-.08-.53-.13-.8-.04-.23-.08-.47-.12-.7-.06-.32-.12-.64-.19-.96-.05-.24-.1-.48-.15-.71-.06-.26-.12-.52-.18-.78-.05-.21-.1-.43-.16-.64-.01-.07-.03-.13-.05-.2-.06-.23-.12-.46-.18-.68 0-.01 0-.02 0-.03-.07-.23-.13-.47-.2-.7-.02-.06-.04-.12-.06-.18-.04-.14-.09-.29-.13-.43-.03-.11-.07-.22-.1-.32 0-.02-.02-.05-.02-.07-.06-.2-.13-.39-.19-.59-.08-.22-.15-.45-.23-.68-.1-.29-.2-.57-.31-.86-.09-.24-.18-.48-.28-.72-.08-.2-.16-.4-.24-.6-.23-.57-.48-1.14-.73-1.7-.1-.22-.2-.43-.3-.64-.11-.24-.23-.48-.35-.72s-.24-.48-.36-.72-.25-.47-.37-.71c0 0 0 0 0-.01-.13-.23-.25-.46-.38-.69-.12-.22-.24-.43-.37-.65l-.04-.07c-.12-.2-.24-.41-.36-.61-.01-.02-.03-.04-.04-.06-.16-.27-.32-.54-.49-.8-.13-.21-.27-.42-.4-.62-.04-.07-.09-.13-.13-.2-.17-.25-.33-.5-.5-.75 0 0 0-.01-.01-.02-.17-.24-.33-.48-.5-.72-.01-.02-.03-.04-.04-.06-.18-.25-.36-.49-.54-.74-.19-.25-.38-.5-.58-.75s-.39-.5-.59-.74t0 0c-.19-.24-.39-.48-.59-.72 0 0 0 0-.01 0l-21.26 21.25-28.82-28.82-5.54-5.54-8.35-8.35c8.11-4.13 17.3-6.47 27.03-6.47 12.41 0 23.93 3.79 33.47 10.28l-17.8 17.8-9.62-9.62-7.54-7.54s-.07 0-.1 0c-.17 0-.33.01-.49.02-.2 0-.4.02-.59.03-.46.03-.92.07-1.38.11-.13.01-.26.02-.38.04-.82.08-1.63.18-2.43.3-.16.02-.32.05-.48.07-.19.03-.38.07-.58.1-.21.04-.43.08-.64.12-.33.06-.67.13-1 .2-.41.08-.81.18-1.21.27l26.45 26.45 21.12-21.12c.82.73 1.63 1.49 2.41 2.28l.37.37c.12.13.24.25.36.38.48.5.95 1.01 1.41 1.52.23.26.46.51.68.78.21.24.41.48.61.72.18.21.35.43.53.64.04.06.09.11.14.17.18.22.35.44.52.66.19.25.39.5.57.75.19.25.37.5.56.76.18.25.35.49.52.74.01.02.03.04.04.06.17.25.34.49.51.74.18.26.35.52.52.78.18.27.35.55.52.83s.34.56.51.84c.15.25.3.5.44.75.03.06.07.12.1.18.14.24.28.48.41.73 0 .02.01.03.02.04.14.25.27.5.4.75.03.06.07.13.1.2.17.31.33.63.48.95.12.24.24.48.35.71.06.13.12.25.17.38.04.09.09.17.12.26.04.08.08.17.12.25 0 .02.02.03.02.05.12.26.23.52.35.78.03.07.06.14.09.21.11.25.22.5.32.75.12.28.23.56.35.85.02.04.04.09.05.14.11.27.22.55.32.83.11.3.22.61.33.91.11.31.22.61.32.92.09.28.18.56.27.83.01.04.02.07.04.11.09.29.18.59.27.88 0 .02.01.04.02.06.09.29.17.58.25.87.02.07.04.14.06.21.06.21.11.43.17.65.02.09.04.17.07.26.12.49.25.99.36 1.49.01.04.02.08.03.12l.08.33c.06.27.11.53.17.8.05.26.1.52.15.78.03.15.06.3.08.44.04.24.08.47.12.71.04.26.08.51.12.77.02.14.04.28.06.42.02.17.05.34.07.51.02.13.03.27.05.4.03.22.06.45.08.67.02.18.04.36.06.53.01.1.02.2.03.3.02.15.03.29.04.44.02.25.04.5.06.76 0 .1.02.21.02.32.02.24.03.49.04.74v.09c.01.3.03.6.04.9v.14c.01.28.02.56.02.85v.16c0 .3.01.6.01.91z" fill="url(#d)"/><text fill="#29abe2" font-size="31.77" transform="translate(671.9 625.18)"><tspan font-family="BebasNeueBold, 'Bebas Neue'" x="0" y="0">MATCH</tspan><tspan font-family="BebasNeueBook, 'Bebas Neue'" x="67.26" y="0">MINT</tspan></text><text font-size="31.77" transform="translate(671.9 625.18)"><tspan fill="#2ca3a0" font-family="BebasNeueBold, 'Bebas Neue'" x="0" y="0">MATCH</tspan><tspan fill="#fb2bba" font-family="BebasNeueBook, 'Bebas Neue'" x="67.26" y="0">MINT</tspan></text><path d="m803.89 527.26-21.89-26.13-.57-.69.21.55.05.14 5.2 13.47-22.01 6.02 1.03 5.95-15.97-11.65-.07.03-5.53-11.14 17.82-2.68h-17.53-3.97-27.89l-6.64 11.45-32.54-.26.75-11.19h-1.7l-9.32 11.11-14.25 16.99-.51.7 14.46 9.99 27.3 19.55-18.27-22.44 18.27-16.82-3.6-4.56 19.8 2.84 15.49 9.59-18.48 41.24-.7 1.7 3.77 2.64 20.31 14.21 19.78-14.92 29.78-21.75-31.26 12.35-17.85-20.21-7.96 2.23 10.88-16.29 16.38-9.01 41.66 22.64 1.6.82 2.89-2.21 13.89-10.61z" fill="url(#e)"/></svg>