<?xml version="1.0" encoding="utf-8"?>
<!-- Generator: Adobe Illustrator 27.3.1, SVG Export Plug-In . SVG Version: 6.00 Build 0)  -->
<svg version="1.1" id="Layer_1" xmlns="http://www.w3.org/2000/svg" xmlns:xlink="http://www.w3.org/1999/xlink" x="0px" y="0px"
	 viewBox="0 0 295.5 936.9" style="enable-background:new 0 0 295.5 936.9;" xml:space="preserve">
<style type="text/css">
	.st0{fill:#020202;}
	.st1{fill:#231F20;}
	.st2{fill-rule:evenodd;clip-rule:evenodd;fill:#FFFFFF;}
	.st3{fill:#30BF97;}
</style>
<path class="st0" d="M236.6,395.2c0,0,10,47.3,25.2,55.8c0,0,4.7,20.9-17.3,40.2c0,0,27.4,48.8-2.9,75c39.4,37.8-20,131.8-2.5,162.9
	c28.2,50.3,37.1,117.4-6.1,170.9c-10.7,13.3-24.7,25.8-42.4,36.9c1.1-65.7-36.7-9.4-93.8-36.9c-16.4-7.9-34.4-22.7-53.5-49.4
	c0,0-10.9-2-18.3,5.2C6.8,869.5,1.1,885.7,0.7,900H0V0c0,0,83.6,8,82.2,12.1C102,7,189.5,181.8,191.1,187.8c1.6,6-6.3,12.9-7.5,30
	c-1.2,17.1,103.1,94,103.1,94S326.7,345.9,236.6,395.2z"/>
<path class="st1" d="M237.8,462.5c-5.5-2.9-11.7-4.4-17.9-4.3c-6.3,0.2-12.5,2.1-17.7,5.6c-9.4,6.5-15.1,17.2-23.4,25.1
	c-10.7,10.1-25.5,14.8-40.1,12.8c-6.4-0.9-12.5-3.1-18-6.5c-2.8-1.7-5.4-3.6-7.8-5.8l1.2-4.3c5.3,2.3,10.9,3.6,16.7,3.7
	c13.2,0.3,26.7-5.2,34.8-15.9c-13.7,6.7-29.9,5.4-42.3-3.4c9.4,3.9,20.5,0,28.4-6.6c13.8-11.8,25.7-47.1,47.3-45.7
	c6.8,0.4,12.5,5.3,17.6,11.8c3,3.9,5.7,8,8.1,12.2C229.5,449.3,233.7,457.6,237.8,462.5z"/>
<path class="st2" d="M139.2,501.7c14.9,2,29.9-2.6,41-12.8c8.5-7.9,14.3-18.6,23.9-25.1c5.4-3.5,11.7-5.4,18.1-5.6
	c6.4-0.1,12.6,1.4,18.3,4.3c-4.2-4.9-8.5-13.2-13.4-21.3c-2.5-4.2-5.2-8.3-8.2-12.2c-5.3-6.5-11.2-11.4-18.1-11.8
	c-22.1-1.4-34.2,33.9-48.4,45.7c-8,6.6-19.3,10.5-29,6.6c7.6,5.2,16.6,7.8,25.8,7.6c6.1-0.2,12-1.6,17.5-4.3
	c-8.3,10.8-22.1,16.3-35.6,16c-5.9-0.1-11.7-1.4-17.1-3.7l-1.2,4.3c2.5,2.2,5.2,4.1,8,5.8C126.4,498.6,132.7,500.8,139.2,501.7
	L139.2,501.7z M220.8,630.4c-2-19.1-8.8-37.3-19.7-53.1c-5-7.2-10.7-13.8-17.1-19.7c-8.5-7.9-23.2-20.9-35.4-21.6
	c-6.1-0.3-32.4,13.9-35,11c16,19,31.9,38.1,47.9,57.2c-8.2-4-19.1-1.2-24.3,6.3c17.8,7.4,32.9,20.2,43,36.7
	c7.1,11.4,11.5,24.2,12.9,37.6c8.2-17.3,9.7-37.1,4.1-55.5c-1.7-5.5-4-10.8-7-15.8c-6.7-11.5-16.2-21-27.7-27.7
	C188,590.4,209.7,607,220.8,630.4L220.8,630.4z M163.2,713.4c-2.3-4-4.4-8.2-6.4-12.5c-7.3-15-13.9-30.6-26-41.9
	s-29.1-17.2-43.5-26.2c-2.1-1.5-4.1-3.3-5.8-5.3c-9.2-10-20.8-27.6-28.6-18c-6.3,7.8,2.2,49.1,10.5,55.2
	c-19.3-12.6-31.7-33.6-33.3-56.6c-4.1,31.7,9.6,64.8,33.8,85.3c4.5,3.8,9.4,7.2,14.5,10.1c9.9,5.4,21.6,9.9,26.4,20.1
	c7.4,15.5-5.4,32.4-10.5,48.7c-6.2,20.3,0.8,44,17.1,57.7c2,1.5,4,3,6.1,4.3c15.9,9.7,37.1,10.8,53.7,2.2
	c-19.7-6.2-35.2-22.6-42.2-41.9c-3.9-10.7-4.9-22.2-2.9-33.4c-1.4,8.3,1.2,16.3,5.9,23.3c4.1,5.9,9.3,10.9,15.3,14.9
	c12.7,8.5,27.8,13.4,40.4,22.1S211,844.9,208,860c20.3-19.2,17-53.4,3.6-78S177.1,737.8,163.2,713.4L163.2,713.4z"/>
<g>
	<path class="st3" d="M194.5,599.2c-9.6-6.8-20.5-11.3-32-13.4c11.5,6.7,21,16.2,27.7,27.7c3,5,5.3,10.3,7,15.8
		c5.6,18.4,4.1,38.2-4.1,55.5c-1.4-13.4-5.8-26.2-12.9-37.6c-10.1-16.5-25.2-29.3-43-36.7c5.2-7.5,16.1-10.3,24.3-6.3
		c-16-19.1-31.9-38.2-47.9-57.2c2.6,2.9,28.9-11.3,35-11c12.2,0.7,26.9,13.7,35.4,21.6c6.4,5.9,12.1,12.5,17.1,19.7
		c10.9,15.8,17.7,34,19.7,53.1C214.9,617.9,205.8,607.2,194.5,599.2L194.5,599.2z"/>
	<path class="st3" d="M208,860c3-15.1-7.6-29.8-20.3-38.5s-27.7-13.6-40.4-22.1c-6-4-11.2-9-15.3-14.9c-4.7-7-7.3-15-5.9-23.3
		c-2,11.2-1,22.7,2.9,33.4c7,19.3,22.5,35.7,42.2,41.9c-16.6,8.6-37.8,7.5-53.7-2.2c-2.1-1.3-4.1-2.8-6.1-4.3
		c-16.3-13.7-23.3-37.4-17.1-57.7c5.1-16.3,17.9-33.2,10.5-48.7c-4.8-10.2-16.5-14.7-26.4-20.1c-5.1-2.9-10-6.3-14.5-10.1
		c-24.2-20.5-37.9-53.6-33.8-85.3c1.6,23,14,44,33.3,56.6c-8.3-6.1-16.8-47.4-10.5-55.2c7.8-9.6,19.4,8,28.6,18
		c1.7,2,3.7,3.8,5.8,5.3c14.4,9,31.1,14.7,43.5,26.2s18.7,26.9,26,41.9c2,4.3,4.1,8.5,6.4,12.5c13.9,24.4,35.1,44,48.4,68.6
		S228.3,840.8,208,860L208,860z"/>
	<path class="st3" d="M240.5,462.5c-5.7-2.9-11.9-4.4-18.3-4.3c-6.4,0.2-12.7,2.1-18.1,5.6c-9.6,6.5-15.4,17.2-23.9,25.1
		c-11.1,10.2-26.1,14.8-41,12.8c-6.5-0.9-12.8-3.1-18.4-6.5c-2.8-1.7-5.5-3.6-8-5.8l1.2-4.3c5.4,2.3,11.2,3.6,17.1,3.7
		c13.5,0.3,27.3-5.2,35.6-16c-5.5,2.7-11.4,4.1-17.5,4.3c-9.2,0.2-18.2-2.4-25.8-7.6c9.7,3.9,21,0,29-6.6
		c14.2-11.8,26.3-47.1,48.4-45.7c6.9,0.4,12.8,5.3,18.1,11.8c3,3.9,5.7,8,8.2,12.2C232,449.3,236.3,457.6,240.5,462.5L240.5,462.5z"
		/>
</g>
</svg>
