<?xml version="1.0" encoding="UTF-8"?><svg id="Layer_1" xmlns="http://www.w3.org/2000/svg" xmlns:xlink="http://www.w3.org/1999/xlink" viewBox="0 0 200 200"><defs><style>.cls-1,.cls-2,.cls-3,.cls-4{fill:none;}.cls-5{fill:#fff;}.cls-6{fill:#30bf97;}.cls-2{stroke:#fff;stroke-width:.92px;}.cls-2,.cls-3{stroke-miterlimit:10;}.cls-3{stroke:#000;stroke-width:1.02px;}.cls-4{clip-path:url(#clippath);}</style><clipPath id="clippath"><ellipse class="cls-1" cx="103.51" cy="106.68" rx="77.96" ry="97.92" transform="translate(-39.15 148.42) rotate(-62.17)"/></clipPath></defs><ellipse class="cls-6" cx="103.78" cy="86.38" rx="73.41" ry="88.16" transform="translate(-21.06 137.83) rotate(-62.17)"/><ellipse class="cls-2" cx="103.51" cy="106.68" rx="77.96" ry="97.92" transform="translate(-39.15 148.42) rotate(-62.17)"/><g class="cls-4"><path class="cls-5" d="m68.55,127.53c-.84.69-1.71,1.4-2.58,2.12l17.51,17.51c.73-.86,1.45-1.71,2.16-2.55l-17.08-17.08Z"/><path class="cls-5" d="m81.3,149.7l-17.91-17.91c-18.21,15.13-42.07,36.1-68.83,62.7-39.77,39.55-67.53,73.23-82.4,92.15l14.61,14.61c20.9-17.15,53.51-45.21,91.34-83.21,26.01-26.14,47.18-49.64,63.2-68.33Z"/><path class="cls-5" d="m126.66,100.57c2.28-.07,4.44-.57,6.5-1.3-.52,1.75-1.01,3.52-1.49,5.26-1.91,6.96-4.05,14.14-8.85,19.54-6.39,7.18-17.27,9.9-26.3,6.73l.34.34c-2.76,3.36-5.79,7.02-9.08,10.94l-16.66-16.66c4.11-3.33,7.82-6.29,11.13-8.89l.08.08c-1.39-3.62-1.95-7.55-1.43-11.41,1.16-8.67,7.06-16.07,13.94-21.49,6.74-5.31,14.68-9,23.01-10.99.2,1.08.14,2.24-.07,3.21-.37,1.67-1.08,3.28-1.83,4.98-.33.74-.66,1.46-.96,2.21-.91,2.27-2.03,5.69-1.11,9.16,1.46,5.5,7.24,8.3,12.36,8.3.14,0,.27-.01.41-.01Z"/><path class="cls-5" d="m143.84,80.93c-4.37,3.48-7,8.14-8.93,13.18-2.68,1.26-5.5,2.28-8.37,2.36-3.5.11-7.74-1.69-8.7-5.26-.45-1.73-.15-3.81.96-6.57.29-.7.59-1.39.9-2.08.81-1.83,1.64-3.7,2.09-5.79.37-1.71.4-3.37.1-4.89,5.52-.97,11.14-1.19,16.7-.64,2.77.26,7.43.35,8.94,3.32,1.9,3.74-1.04,4.25-3.69,6.36Z"/><path class="cls-3" d="m54.9,117.98c-.84.69-1.71,1.4-2.58,2.12l17.51,17.51c.73-.86,1.45-1.71,2.16-2.55l-17.08-17.08Z"/><path class="cls-3" d="m67.65,140.14l-17.91-17.91c-18.21,15.13-42.07,36.1-68.83,62.7-39.77,39.55-67.53,73.23-82.4,92.15l14.61,14.61c20.9-17.15,53.51-45.21,91.34-83.21,26.01-26.14,47.18-49.64,63.2-68.33Z"/><path class="cls-3" d="m109.17,114.51c4.79-5.4,6.94-12.58,8.85-19.54,1.4-5.09,2.83-10.34,5.27-15"/><path class="cls-3" d="m67.26,95.64c-.52,3.86.04,7.79,1.43,11.41l-.08-.08c-3.3,2.6-7.02,5.56-11.12,8.89l16.65,16.65c3.29-3.91,6.32-7.57,9.08-10.93l-.35-.35c2.03.72,4.15,1.13,6.3,1.27"/><path class="cls-3" d="m88.53,69.26c-2.56,1.44-5.01,3.07-7.32,4.89-6.89,5.41-12.78,12.81-13.95,21.49"/><path class="cls-3" d="m133.87,65.01c-1.51-2.96-6.17-3.05-8.93-3.32-8.41-.82-17,.1-25.06,2.66"/></g></svg>