<?xml version="1.0" encoding="UTF-8"?><svg id="Layer_1" xmlns="http://www.w3.org/2000/svg" xmlns:xlink="http://www.w3.org/1999/xlink" viewBox="0 0 200 200"><defs><style>.cls-1,.cls-2,.cls-3,.cls-4,.cls-5{fill:none;}.cls-2{clip-path:url(#clippath-1);}.cls-6{fill:#fff;}.cls-7{fill:#30bf97;}.cls-3{stroke:#fff;stroke-width:.92px;}.cls-3,.cls-4{stroke-miterlimit:10;}.cls-4{stroke:#000;stroke-width:1.02px;}.cls-5{clip-path:url(#clippath);}</style><clipPath id="clippath"><ellipse class="cls-1" cx="100.49" cy="111.61" rx="77.96" ry="97.92" transform="translate(-45.12 148.37) rotate(-62.17)"/></clipPath><clipPath id="clippath-1"><ellipse class="cls-1" cx="354.51" cy="106.68" rx="77.96" ry="97.92" transform="translate(94.67 370.39) rotate(-62.17)"/></clipPath></defs><ellipse class="cls-7" cx="100.76" cy="91.3" rx="73.41" ry="88.16" transform="translate(-27.02 137.79) rotate(-62.17)"/><ellipse class="cls-3" cx="100.49" cy="111.61" rx="77.96" ry="97.92" transform="translate(-45.12 148.37) rotate(-62.17)"/><g class="cls-5"><polygon class="cls-6" points="136.96 63.26 52.31 63.26 -10.8 104.22 -12.54 104.22 -12.54 190.24 73.47 190.24 137.64 138.36 136.96 63.26"/><line class="cls-4" x1="85.08" y1="146.21" x2="85.08" y2="180.85"/><polyline class="cls-4" points="125.94 90.54 85.08 116.9 85.08 146.21"/><line class="cls-4" x1="85.76" y1="116.51" x2="-7.08" y2="116.51"/><line class="cls-4" x1="59.14" y1="106.91" x2="59.14" y2="117.19"/><line class="cls-4" x1="59.14" y1="72.14" x2="59.14" y2="90.54"/><polyline class="cls-4" points="123.46 163.53 144.47 146.55 143.79 71.46 59.14 71.46 7.29 105.1"/><polyline class="cls-4" points="52.34 198.43 80.3 198.43 107.78 176.21"/><line class="cls-4" x1="13.16" y1="198.43" x2="52.34" y2="198.43"/><polyline class="cls-4" points="-5.71 116.08 -5.71 198.43 13.16 198.43"/></g><g class="cls-2"><path class="cls-6" d="m332.3,149.7l-17.91-17.91c-18.21,15.13-42.07,36.1-68.83,62.7-39.77,39.55-67.53,73.23-82.4,92.15l14.61,14.61c20.9-17.15,53.51-45.21,91.34-83.21,26.01-26.14,47.18-49.64,63.2-68.33Z"/><path class="cls-4" d="m318.65,140.14l-17.91-17.91c-18.21,15.13-42.07,36.1-68.83,62.7-39.77,39.55-67.53,73.23-82.4,92.15l14.61,14.61c20.9-17.15,53.51-45.21,91.34-83.21,26.01-26.14,47.18-49.64,63.2-68.33Z"/></g></svg>