<?xml version="1.0" encoding="UTF-8"?><svg id="Layer_1" xmlns="http://www.w3.org/2000/svg" xmlns:xlink="http://www.w3.org/1999/xlink" viewBox="0 0 200 200"><defs><style>.cls-1,.cls-2,.cls-3,.cls-4,.cls-5{fill:none;}.cls-2{clip-path:url(#clippath-1);}.cls-6{fill:#fff;}.cls-7{fill:#30bf97;}.cls-3{stroke:#fff;stroke-width:.92px;}.cls-3,.cls-4{stroke-miterlimit:10;}.cls-4{stroke:#000;stroke-width:1.02px;}.cls-5{clip-path:url(#clippath);}</style><clipPath id="clippath"><ellipse class="cls-1" cx="354.51" cy="-126.32" rx="77.96" ry="97.92" transform="translate(300.72 246.16) rotate(-62.17)"/></clipPath><clipPath id="clippath-1"><ellipse class="cls-1" cx="100" cy="112.16" rx="77.96" ry="97.92" transform="translate(-45.88 148.23) rotate(-62.17)"/></clipPath></defs><g class="cls-5"><path class="cls-6" d="m332.3-83.3l-17.91-17.91c-18.21,15.13-42.07,36.1-68.83,62.7C205.78,1.04,178.02,34.72,163.15,53.64l14.61,14.61c20.9-17.15,53.51-45.21,91.34-83.21,26.01-26.14,47.18-49.64,63.2-68.33Z"/><path class="cls-4" d="m318.65-92.86l-17.91-17.91c-18.21,15.13-42.07,36.1-68.83,62.7C192.13-8.52,164.37,25.16,149.5,44.08l14.61,14.61c20.9-17.15,53.51-45.21,91.34-83.21,26.01-26.14,47.18-49.64,63.2-68.33Z"/></g><ellipse class="cls-7" cx="100.26" cy="91.86" rx="73.41" ry="88.16" transform="translate(-27.78 137.64) rotate(-62.17)"/><ellipse class="cls-3" cx="100" cy="112.16" rx="77.96" ry="97.92" transform="translate(-45.88 148.23) rotate(-62.17)"/><g class="cls-2"><path class="cls-6" d="m115.15,86.22l-23.34-28.67H15.11l-23.34,28.67h-1.11v57.12c0,8.42,6.81,15.24,15.24,15.24h12.07v-30.95c0-7.03,5.71-12.74,12.74-12.74h45.52c7.03,0,12.74,5.71,12.74,12.74v30.95h12.07c8.42,0,15.24-6.81,15.24-15.24v-57.12h-1.11Zm-12.54,27.31c-3.77,0-6.83-3.06-6.83-6.83s3.06-6.83,6.83-6.83,6.83,3.06,6.83,6.83-3.06,6.83-6.83,6.83Z"/><path class="cls-6" d="m18.58,176.33l7.58-42.51c0-2.92,2.36-5.28,5.28-5.28h44.06c2.92,0,5.28,2.36,5.28,5.28l7.58,42.51H18.58Z"/><path class="cls-4" d="m114.9,84.66l-17.63-21.65H20.57L-2.77,91.68h-1.11v57.12c0,8.42,6.81,15.24,15.24,15.24h12.07v-30.95c0-7.03,5.71-12.74,12.74-12.74h45.52c7.03,0,12.74,5.71,12.74,12.74v30.95h12.07c8.42,0,15.24-6.81,15.24-15.24v-18.36m0-16.92v-18.79m-13.65,24.25c-3.77,0-6.83-3.06-6.83-6.83s3.06-6.83,6.83-6.83,6.83,3.06,6.83,6.83-3.06,6.83-6.83,6.83Z"/><line class="cls-4" x1="97.83" y1="91" x2="11.82" y2="91"/><line class="cls-4" x1="32.3" y1="77.35" x2="86.91" y2="77.35"/></g></svg>